ffmpeg started on 2026-01-15 at 19:08:15
Report written to "D:\Convert\FFMetrics\reports\ssim_report-6.txt"
Log level: 32
Command line:
ffmpeg -hide_banner -nostdin -r 24000/1001 -i "F:\\Convert\\files\\[DC] Make Heroine ga Oosugiru - 07_Telegram_HEVC(139).mkv" -r 24000/1001 -i "F:\\Convert\\files\\[DC] Make Heroine ga Oosugiru - 07_Telegram.mp4" -lavfi "[0:v]settb=AVTB,setpts=PTS-STARTPTS,format=pix_fmts=yuv420p10le,fps=24000/1001,scale=1920:1080:flags=lanczos:param0=3:out_range=limited:out_color_matrix=bt709:out_chroma_loc=left,setsar=1/1,setdar=(1920/1080)*(1/1),colorspace=format=yuv420p10:range=tv:primaries=bt709:trc=bt709:space=bt709:fast=0[main];[1:v]settb=AVTB,setpts=PTS-STARTPTS,format=pix_fmts=yuv420p,fps=24000/1001,scale=1920:1080:flags=lanczos:param0=3:out_range=limited:out_color_matrix=bt709:out_chroma_loc=left,setsar=1.000,setdar=1.778,colorspace=format=yuv420p:range=tv:primaries=bt709:trc=bt709:space=bt709:fast=0[ref];[main][ref]ssim=eof_action=endall:stats_file='D\\:/Convert/FFMetrics/logs/ssim_logfile-6.txt'" -f null -
Input #0, matroska,webm, from 'F:\Convert\files\[DC] Make Heroine ga Oosugiru - 07_Telegram_HEVC(139).mkv':
  Metadata:
    COMPATIBLE_BRANDS: isomiso2avc1mp41
    MAJOR_BRAND     : isom
    MINOR_VERSION   : 512
    ENCODER         : Lavf61.7.100
  Duration: 00:24:06.79, start: -0.021000, bitrate: 977 kb/s
  Stream #0:0: Video: hevc (Main 10), yuv420p10le(tv, bt709, progressive), 1920x1080 [SAR 1:1 DAR 16:9], 23.98 fps, 23.98 tbr, 1k tbn (default)
      Metadata:
        HANDLER_NAME    : VideoHandler
        VENDOR_ID       : [0][0][0][0]
        ENCODER         : Lavc61.19.100 libx265
        BPS             : 780759
        DURATION        : 00:24:06.569708333
        NUMBER_OF_FRAMES: 34683
        NUMBER_OF_BYTES : 141177867
        _STATISTICS_WRITING_APP: mkvpropedit v94.0 ('Initiate') 64-bit
        _STATISTICS_WRITING_DATE_UTC: 2026-01-15 15:32:54
        _STATISTICS_TAGS: BPS DURATION NUMBER_OF_FRAMES NUMBER_OF_BYTES
  Stream #0:1: Audio: aac (LC), 48000 Hz, stereo, fltp (default)
      Metadata:
        HANDLER_NAME    : SoundHandler
        VENDOR_ID       : [0][0][0][0]
        ENCODER         : Lavc61.19.100 aac
        BPS             : 193194
        DURATION        : 00:24:06.784000000
        NUMBER_OF_FRAMES: 67819
        NUMBER_OF_BYTES : 34938755
        _STATISTICS_WRITING_APP: mkvpropedit v94.0 ('Initiate') 64-bit
        _STATISTICS_WRITING_DATE_UTC: 2026-01-15 15:32:54
        _STATISTICS_TAGS: BPS DURATION NUMBER_OF_FRAMES NUMBER_OF_BYTES
Input #1, mov,mp4,m4a,3gp,3g2,mj2, from 'F:\Convert\files\[DC] Make Heroine ga Oosugiru - 07_Telegram.mp4':
  Metadata:
    major_brand     : isom
    minor_version   : 512
    compatible_brands: isomiso2avc1mp41
    encoder         : Lavf60.16.100
  Duration: 00:24:06.74, start: 0.000000, bitrate: 3764 kb/s
  Stream #1:0[0x1](und): Video: h264 (High) (avc1 / 0x31637661), yuv420p(tv, bt709, progressive), 1920x1080 [SAR 1:1 DAR 16:9], 3616 kb/s, 23.98 fps, 23.98 tbr, 24k tbn (default)
      Metadata:
        handler_name    : VideoHandler
        vendor_id       : [0][0][0][0]
        encoder         : Lavc60.31.102 h264_qsv
  Stream #1:1[0x2](und): Audio: aac (HE-AACv2) (mp4a / 0x6134706D), 48000 Hz, stereo, fltp, 144 kb/s (default)
      Metadata:
        handler_name    : SoundHandler
        vendor_id       : [0][0][0][0]
Stream mapping:
  Stream #0:0 (hevc) -> settb:default
  Stream #1:0 (h264) -> settb:default
  ssim:default -> Stream #0:0 (wrapped_avframe)
  Stream #0:1 -> #0:1 (aac (native) -> pcm_s16le (native))
Output #0, null, to 'pipe:':
  Metadata:
    COMPATIBLE_BRANDS: isomiso2avc1mp41
    MAJOR_BRAND     : isom
    MINOR_VERSION   : 512
    encoder         : Lavf61.7.100
  Stream #0:0: Video: wrapped_avframe, yuv420p10le(tv, bt709, progressive), 1920x1080 [SAR 1:1 DAR 16:9], q=2-31, 200 kb/s, 23.98 fps, 23.98 tbn
      Metadata:
        encoder         : Lavc61.19.100 wrapped_avframe
  Stream #0:1: Audio: pcm_s16le, 48000 Hz, stereo, s16, 1536 kb/s (default)
      Metadata:
        HANDLER_NAME    : SoundHandler
        VENDOR_ID       : [0][0][0][0]
        _STATISTICS_TAGS: BPS DURATION NUMBER_OF_FRAMES NUMBER_OF_BYTES
        BPS             : 193194
        DURATION        : 00:24:06.784000000
        NUMBER_OF_FRAMES: 67819
        NUMBER_OF_BYTES : 34938755
        _STATISTICS_WRITING_APP: mkvpropedit v94.0 ('Initiate') 64-bit
        _STATISTICS_WRITING_DATE_UTC: 2026-01-15 15:32:54
        encoder         : Lavc61.19.100 pcm_s16le
frame=  125 fps=0.0 q=-0.0 size=N/A time=00:00:05.21 bitrate=N/A speed=10.3x    frame=  323 fps=313 q=-0.0 size=N/A time=00:00:13.47 bitrate=N/A speed=13.1x    frame=  506 fps=329 q=-0.0 size=N/A time=00:00:21.10 bitrate=N/A speed=13.7x    frame=  698 fps=339 q=-0.0 size=N/A time=00:00:29.11 bitrate=N/A speed=14.1x    frame=  880 fps=342 q=-0.0 size=N/A time=00:00:36.70 bitrate=N/A speed=14.3x    frame= 1019 fps=329 q=-0.0 size=N/A time=00:00:42.50 bitrate=N/A speed=13.7x    frame= 1189 fps=329 q=-0.0 size=N/A time=00:00:49.59 bitrate=N/A speed=13.7x    frame= 1350 fps=327 q=-0.0 size=N/A time=00:00:56.30 bitrate=N/A speed=13.7x    frame= 1509 fps=326 q=-0.0 size=N/A time=00:01:02.93 bitrate=N/A speed=13.6x    frame= 1654 fps=321 q=-0.0 size=N/A time=00:01:08.98 bitrate=N/A speed=13.4x    frame= 1824 fps=321 q=-0.0 size=N/A time=00:01:16.07 bitrate=N/A speed=13.4x    frame= 1988 fps=321 q=-0.0 size=N/A time=00:01:22.91 bitrate=N/A speed=13.4x    frame= 2098 fps=313 q=-0.0 size=N/A time=00:01:27.50 bitrate=N/A speed=13.1x    frame= 2261 fps=313 q=-0.0 size=N/A time=00:01:34.30 bitrate=N/A speed=13.1x    frame= 2405 fps=311 q=-0.0 size=N/A time=00:01:40.30 bitrate=N/A speed=  13x    frame= 2542 fps=308 q=-0.0 size=N/A time=00:01:46.02 bitrate=N/A speed=12.9x    frame= 2696 fps=308 q=-0.0 size=N/A time=00:01:52.44 bitrate=N/A speed=12.8x    frame= 2878 fps=310 q=-0.0 size=N/A time=00:02:00.03 bitrate=N/A speed=12.9x    frame= 3056 fps=312 q=-0.0 size=N/A time=00:02:07.46 bitrate=N/A speed=  13x    frame= 3242 fps=314 q=-0.0 size=N/A time=00:02:15.21 bitrate=N/A speed=13.1x    frame= 3432 fps=317 q=-0.0 size=N/A time=00:02:23.14 bitrate=N/A speed=13.2x    frame= 3628 fps=320 q=-0.0 size=N/A time=00:02:31.31 bitrate=N/A speed=13.3x    frame= 3812 fps=321 q=-0.0 size=N/A time=00:02:38.99 bitrate=N/A speed=13.4x    frame= 3995 fps=323 q=-0.0 size=N/A time=00:02:46.62 bitrate=N/A speed=13.5x    frame= 4184 fps=325 q=-0.0 size=N/A time=00:02:54.50 bitrate=N/A speed=13.5x    frame= 4377 fps=326 q=-0.0 size=N/A time=00:03:02.55 bitrate=N/A speed=13.6x    frame= 4561 fps=328 q=-0.0 size=N/A time=00:03:10.23 bitrate=N/A speed=13.7x    frame= 4749 fps=329 q=-0.0 size=N/A time=00:03:18.07 bitrate=N/A speed=13.7x    frame= 4934 fps=330 q=-0.0 size=N/A time=00:03:25.78 bitrate=N/A speed=13.8x    frame= 5126 fps=331 q=-0.0 size=N/A time=00:03:33.79 bitrate=N/A speed=13.8x    frame= 5311 fps=332 q=-0.0 size=N/A time=00:03:41.51 bitrate=N/A speed=13.9x    frame= 5496 fps=333 q=-0.0 size=N/A time=00:03:49.22 bitrate=N/A speed=13.9x    frame= 5686 fps=334 q=-0.0 size=N/A time=00:03:57.15 bitrate=N/A speed=13.9x    frame= 5867 fps=335 q=-0.0 size=N/A time=00:04:04.70 bitrate=N/A speed=  14x    frame= 6057 fps=336 q=-0.0 size=N/A time=00:04:12.62 bitrate=N/A speed=  14x    frame= 6249 fps=337 q=-0.0 size=N/A time=00:04:20.63 bitrate=N/A speed=  14x    frame= 6435 fps=337 q=-0.0 size=N/A time=00:04:28.39 bitrate=N/A speed=14.1x    frame= 6623 fps=338 q=-0.0 size=N/A time=00:04:36.23 bitrate=N/A speed=14.1x    frame= 6811 fps=339 q=-0.0 size=N/A time=00:04:44.07 bitrate=N/A speed=14.1x    frame= 7005 fps=340 q=-0.0 size=N/A time=00:04:52.16 bitrate=N/A speed=14.2x    frame= 7187 fps=340 q=-0.0 size=N/A time=00:04:59.75 bitrate=N/A speed=14.2x    frame= 7363 fps=340 q=-0.0 size=N/A time=00:05:07.09 bitrate=N/A speed=14.2x    frame= 7542 fps=340 q=-0.0 size=N/A time=00:05:14.56 bitrate=N/A speed=14.2x    frame= 7726 fps=341 q=-0.0 size=N/A time=00:05:22.23 bitrate=N/A speed=14.2x    frame= 7889 fps=340 q=-0.0 size=N/A time=00:05:29.03 bitrate=N/A speed=14.2x    frame= 8070 fps=340 q=-0.0 size=N/A time=00:05:36.58 bitrate=N/A speed=14.2x    frame= 8256 fps=341 q=-0.0 size=N/A time=00:05:44.34 bitrate=N/A speed=14.2x    frame= 8440 fps=341 q=-0.0 size=N/A time=00:05:52.01 bitrate=N/A speed=14.2x    frame= 8625 fps=342 q=-0.0 size=N/A time=00:05:59.73 bitrate=N/A speed=14.2x    frame= 8810 fps=342 q=-0.0 size=N/A time=00:06:07.45 bitrate=N/A speed=14.3x    frame= 8998 fps=342 q=-0.0 size=N/A time=00:06:15.29 bitrate=N/A speed=14.3x    frame= 9185 fps=343 q=-0.0 size=N/A time=00:06:23.09 bitrate=N/A speed=14.3x    frame= 9381 fps=343 q=-0.0 size=N/A time=00:06:31.26 bitrate=N/A speed=14.3x    frame= 9563 fps=343 q=-0.0 size=N/A time=00:06:38.85 bitrate=N/A speed=14.3x    frame= 9747 fps=344 q=-0.0 size=N/A time=00:06:46.53 bitrate=N/A speed=14.3x    frame= 9944 fps=344 q=-0.0 size=N/A time=00:06:54.74 bitrate=N/A speed=14.4x    frame=10124 fps=344 q=-0.0 size=N/A time=00:07:02.25 bitrate=N/A speed=14.4x    frame=10308 fps=345 q=-0.0 size=N/A time=00:07:09.92 bitrate=N/A speed=14.4x    frame=10492 fps=345 q=-0.0 size=N/A time=00:07:17.60 bitrate=N/A speed=14.4x    frame=10680 fps=345 q=-0.0 size=N/A time=00:07:25.44 bitrate=N/A speed=14.4x    frame=10863 fps=345 q=-0.0 size=N/A time=00:07:33.07 bitrate=N/A speed=14.4x    frame=11045 fps=346 q=-0.0 size=N/A time=00:07:40.66 bitrate=N/A speed=14.4x    frame=11235 fps=346 q=-0.0 size=N/A time=00:07:48.59 bitrate=N/A speed=14.4x    frame=11418 fps=346 q=-0.0 size=N/A time=00:07:56.22 bitrate=N/A speed=14.4x    frame=11606 fps=346 q=-0.0 size=N/A time=00:08:04.06 bitrate=N/A speed=14.4x    frame=11789 fps=346 q=-0.0 size=N/A time=00:08:11.69 bitrate=N/A speed=14.5x    frame=11980 fps=347 q=-0.0 size=N/A time=00:08:19.66 bitrate=N/A speed=14.5x    frame=12165 fps=347 q=-0.0 size=N/A time=00:08:27.38 bitrate=N/A speed=14.5x    frame=12350 fps=347 q=-0.0 size=N/A time=00:08:35.09 bitrate=N/A speed=14.5x    frame=12536 fps=347 q=-0.0 size=N/A time=00:08:42.85 bitrate=N/A speed=14.5x    frame=12727 fps=348 q=-0.0 size=N/A time=00:08:50.82 bitrate=N/A speed=14.5x    frame=12911 fps=348 q=-0.0 size=N/A time=00:08:58.49 bitrate=N/A speed=14.5x    frame=13099 fps=348 q=-0.0 size=N/A time=00:09:06.33 bitrate=N/A speed=14.5x    frame=13282 fps=348 q=-0.0 size=N/A time=00:09:13.97 bitrate=N/A speed=14.5x    frame=13464 fps=348 q=-0.0 size=N/A time=00:09:21.56 bitrate=N/A speed=14.5x    frame=13656 fps=348 q=-0.0 size=N/A time=00:09:29.56 bitrate=N/A speed=14.5x    frame=13842 fps=349 q=-0.0 size=N/A time=00:09:37.32 bitrate=N/A speed=14.5x    frame=14025 fps=349 q=-0.0 size=N/A time=00:09:44.95 bitrate=N/A speed=14.5x    frame=14204 fps=349 q=-0.0 size=N/A time=00:09:52.42 bitrate=N/A speed=14.5x    frame=14386 fps=349 q=-0.0 size=N/A time=00:10:00.01 bitrate=N/A speed=14.5x    frame=14572 fps=349 q=-0.0 size=N/A time=00:10:07.77 bitrate=N/A speed=14.6x    frame=14756 fps=349 q=-0.0 size=N/A time=00:10:15.44 bitrate=N/A speed=14.6x    frame=14941 fps=349 q=-0.0 size=N/A time=00:10:23.16 bitrate=N/A speed=14.6x    frame=15113 fps=349 q=-0.0 size=N/A time=00:10:30.33 bitrate=N/A speed=14.6x    frame=15282 fps=349 q=-0.0 size=N/A time=00:10:37.38 bitrate=N/A speed=14.5x    frame=15459 fps=349 q=-0.0 size=N/A time=00:10:44.76 bitrate=N/A speed=14.5x    frame=15647 fps=349 q=-0.0 size=N/A time=00:10:52.61 bitrate=N/A speed=14.5x    frame=15834 fps=349 q=-0.0 size=N/A time=00:11:00.40 bitrate=N/A speed=14.6x    frame=16021 fps=349 q=-0.0 size=N/A time=00:11:08.20 bitrate=N/A speed=14.6x    frame=16207 fps=349 q=-0.0 size=N/A time=00:11:15.96 bitrate=N/A speed=14.6x    frame=16397 fps=349 q=-0.0 size=N/A time=00:11:23.89 bitrate=N/A speed=14.6x    frame=16578 fps=349 q=-0.0 size=N/A time=00:11:31.44 bitrate=N/A speed=14.6x    frame=16769 fps=350 q=-0.0 size=N/A time=00:11:39.40 bitrate=N/A speed=14.6x    frame=16948 fps=350 q=-0.0 size=N/A time=00:11:46.87 bitrate=N/A speed=14.6x    frame=17142 fps=350 q=-0.0 size=N/A time=00:11:54.96 bitrate=N/A speed=14.6x    frame=17326 fps=350 q=-0.0 size=N/A time=00:12:02.63 bitrate=N/A speed=14.6x    frame=17511 fps=350 q=-0.0 size=N/A time=00:12:10.35 bitrate=N/A speed=14.6x    frame=17695 fps=350 q=-0.0 size=N/A time=00:12:18.02 bitrate=N/A speed=14.6x    frame=17881 fps=350 q=-0.0 size=N/A time=00:12:25.78 bitrate=N/A speed=14.6x    frame=18063 fps=350 q=-0.0 size=N/A time=00:12:33.37 bitrate=N/A speed=14.6x    frame=18245 fps=350 q=-0.0 size=N/A time=00:12:40.96 bitrate=N/A speed=14.6x    frame=18429 fps=350 q=-0.0 size=N/A time=00:12:48.64 bitrate=N/A speed=14.6x    frame=18611 fps=350 q=-0.0 size=N/A time=00:12:56.23 bitrate=N/A speed=14.6x    frame=18807 fps=351 q=-0.0 size=N/A time=00:13:04.40 bitrate=N/A speed=14.6x    frame=18994 fps=351 q=-0.0 size=N/A time=00:13:12.20 bitrate=N/A speed=14.6x    frame=19182 fps=351 q=-0.0 size=N/A time=00:13:20.04 bitrate=N/A speed=14.6x    frame=19365 fps=351 q=-0.0 size=N/A time=00:13:27.68 bitrate=N/A speed=14.6x    frame=19548 fps=351 q=-0.0 size=N/A time=00:13:35.31 bitrate=N/A speed=14.6x    frame=19745 fps=351 q=-0.0 size=N/A time=00:13:43.53 bitrate=N/A speed=14.7x    frame=19935 fps=351 q=-0.0 size=N/A time=00:13:51.45 bitrate=N/A speed=14.7x    frame=20120 fps=352 q=-0.0 size=N/A time=00:13:59.17 bitrate=N/A speed=14.7x    frame=20303 fps=352 q=-0.0 size=N/A time=00:14:06.80 bitrate=N/A speed=14.7x    frame=20485 fps=352 q=-0.0 size=N/A time=00:14:14.39 bitrate=N/A speed=14.7x    frame=20656 fps=351 q=-0.0 size=N/A time=00:14:21.52 bitrate=N/A speed=14.7x    frame=20837 fps=351 q=-0.0 size=N/A time=00:14:29.07 bitrate=N/A speed=14.7x    frame=21033 fps=352 q=-0.0 size=N/A time=00:14:37.25 bitrate=N/A speed=14.7x    frame=21210 fps=352 q=-0.0 size=N/A time=00:14:44.63 bitrate=N/A speed=14.7x    frame=21402 fps=352 q=-0.0 size=N/A time=00:14:52.64 bitrate=N/A speed=14.7x    frame=21589 fps=352 q=-0.0 size=N/A time=00:15:00.44 bitrate=N/A speed=14.7x    frame=21779 fps=352 q=-0.0 size=N/A time=00:15:08.36 bitrate=N/A speed=14.7x    frame=21959 fps=352 q=-0.0 size=N/A time=00:15:15.87 bitrate=N/A speed=14.7x    frame=22155 fps=352 q=-0.0 size=N/A time=00:15:24.04 bitrate=N/A speed=14.7x    frame=22339 fps=352 q=-0.0 size=N/A time=00:15:31.72 bitrate=N/A speed=14.7x    frame=22525 fps=352 q=-0.0 size=N/A time=00:15:39.48 bitrate=N/A speed=14.7x    frame=22712 fps=352 q=-0.0 size=N/A time=00:15:47.27 bitrate=N/A speed=14.7x    frame=22901 fps=352 q=-0.0 size=N/A time=00:15:55.16 bitrate=N/A speed=14.7x    frame=23080 fps=352 q=-0.0 size=N/A time=00:16:02.62 bitrate=N/A speed=14.7x    frame=23270 fps=353 q=-0.0 size=N/A time=00:16:10.55 bitrate=N/A speed=14.7x    frame=23455 fps=353 q=-0.0 size=N/A time=00:16:18.26 bitrate=N/A speed=14.7x    frame=23637 fps=353 q=-0.0 size=N/A time=00:16:25.85 bitrate=N/A speed=14.7x    frame=23828 fps=353 q=-0.0 size=N/A time=00:16:33.82 bitrate=N/A speed=14.7x    frame=24014 fps=353 q=-0.0 size=N/A time=00:16:41.58 bitrate=N/A speed=14.7x    frame=24189 fps=353 q=-0.0 size=N/A time=00:16:48.88 bitrate=N/A speed=14.7x    frame=24383 fps=353 q=-0.0 size=N/A time=00:16:56.97 bitrate=N/A speed=14.7x    frame=24567 fps=353 q=-0.0 size=N/A time=00:17:04.64 bitrate=N/A speed=14.7x    frame=24755 fps=353 q=-0.0 size=N/A time=00:17:12.48 bitrate=N/A speed=14.7x    frame=24942 fps=353 q=-0.0 size=N/A time=00:17:20.28 bitrate=N/A speed=14.7x    frame=25138 fps=353 q=-0.0 size=N/A time=00:17:28.46 bitrate=N/A speed=14.7x    frame=25325 fps=353 q=-0.0 size=N/A time=00:17:36.26 bitrate=N/A speed=14.7x    frame=25509 fps=353 q=-0.0 size=N/A time=00:17:43.93 bitrate=N/A speed=14.7x    frame=25687 fps=353 q=-0.0 size=N/A time=00:17:51.36 bitrate=N/A speed=14.7x    frame=25879 fps=353 q=-0.0 size=N/A time=00:17:59.36 bitrate=N/A speed=14.7x    frame=26068 fps=354 q=-0.0 size=N/A time=00:18:07.25 bitrate=N/A speed=14.7x    frame=26254 fps=354 q=-0.0 size=N/A time=00:18:15.01 bitrate=N/A speed=14.7x    frame=26445 fps=354 q=-0.0 size=N/A time=00:18:22.97 bitrate=N/A speed=14.8x    frame=26632 fps=354 q=-0.0 size=N/A time=00:18:30.77 bitrate=N/A speed=14.8x    frame=26817 fps=354 q=-0.0 size=N/A time=00:18:38.49 bitrate=N/A speed=14.8x    frame=26996 fps=354 q=-0.0 size=N/A time=00:18:45.95 bitrate=N/A speed=14.8x    frame=27174 fps=354 q=-0.0 size=N/A time=00:18:53.38 bitrate=N/A speed=14.8x    frame=27361 fps=354 q=-0.0 size=N/A time=00:19:01.18 bitrate=N/A speed=14.8x    frame=27541 fps=354 q=-0.0 size=N/A time=00:19:08.68 bitrate=N/A speed=14.8x    frame=27724 fps=354 q=-0.0 size=N/A time=00:19:16.32 bitrate=N/A speed=14.8x    frame=27911 fps=354 q=-0.0 size=N/A time=00:19:24.12 bitrate=N/A speed=14.8x    frame=28101 fps=354 q=-0.0 size=N/A time=00:19:32.04 bitrate=N/A speed=14.8x    frame=28288 fps=354 q=-0.0 size=N/A time=00:19:39.84 bitrate=N/A speed=14.8x    frame=28468 fps=354 q=-0.0 size=N/A time=00:19:47.35 bitrate=N/A speed=14.8x    frame=28658 fps=354 q=-0.0 size=N/A time=00:19:55.27 bitrate=N/A speed=14.8x    frame=28834 fps=354 q=-0.0 size=N/A time=00:20:02.61 bitrate=N/A speed=14.8x    frame=29006 fps=354 q=-0.0 size=N/A time=00:20:09.79 bitrate=N/A speed=14.8x    frame=29184 fps=354 q=-0.0 size=N/A time=00:20:17.21 bitrate=N/A speed=14.8x    frame=29347 fps=354 q=-0.0 size=N/A time=00:20:24.01 bitrate=N/A speed=14.7x    frame=29515 fps=353 q=-0.0 size=N/A time=00:20:31.02 bitrate=N/A speed=14.7x    frame=29690 fps=353 q=-0.0 size=N/A time=00:20:38.32 bitrate=N/A speed=14.7x    frame=29860 fps=353 q=-0.0 size=N/A time=00:20:45.41 bitrate=N/A speed=14.7x    frame=30023 fps=353 q=-0.0 size=N/A time=00:20:52.20 bitrate=N/A speed=14.7x    frame=30201 fps=353 q=-0.0 size=N/A time=00:20:59.63 bitrate=N/A speed=14.7x    frame=30380 fps=353 q=-0.0 size=N/A time=00:21:07.09 bitrate=N/A speed=14.7x    frame=30567 fps=353 q=-0.0 size=N/A time=00:21:14.89 bitrate=N/A speed=14.7x    frame=30753 fps=353 q=-0.0 size=N/A time=00:21:22.65 bitrate=N/A speed=14.7x    frame=30942 fps=353 q=-0.0 size=N/A time=00:21:30.53 bitrate=N/A speed=14.7x    frame=31126 fps=353 q=-0.0 size=N/A time=00:21:38.21 bitrate=N/A speed=14.7x    frame=31309 fps=353 q=-0.0 size=N/A time=00:21:45.84 bitrate=N/A speed=14.7x    frame=31483 fps=353 q=-0.0 size=N/A time=00:21:53.10 bitrate=N/A speed=14.7x    frame=31664 fps=353 q=-0.0 size=N/A time=00:22:00.65 bitrate=N/A speed=14.7x    frame=31843 fps=353 q=-0.0 size=N/A time=00:22:08.11 bitrate=N/A speed=14.7x    frame=32021 fps=353 q=-0.0 size=N/A time=00:22:15.54 bitrate=N/A speed=14.7x    frame=32197 fps=353 q=-0.0 size=N/A time=00:22:22.88 bitrate=N/A speed=14.7x    frame=32392 fps=353 q=-0.0 size=N/A time=00:22:31.01 bitrate=N/A speed=14.7x    frame=32578 fps=353 q=-0.0 size=N/A time=00:22:38.77 bitrate=N/A speed=14.7x    frame=32729 fps=353 q=-0.0 size=N/A time=00:22:45.07 bitrate=N/A speed=14.7x    frame=32887 fps=352 q=-0.0 size=N/A time=00:22:51.66 bitrate=N/A speed=14.7x    frame=33073 fps=352 q=-0.0 size=N/A time=00:22:59.41 bitrate=N/A speed=14.7x    frame=33255 fps=352 q=-0.0 size=N/A time=00:23:07.01 bitrate=N/A speed=14.7x    frame=33423 fps=352 q=-0.0 size=N/A time=00:23:14.01 bitrate=N/A speed=14.7x    frame=33579 fps=352 q=-0.0 size=N/A time=00:23:20.52 bitrate=N/A speed=14.7x    frame=33737 fps=352 q=-0.0 size=N/A time=00:23:27.11 bitrate=N/A speed=14.7x    frame=33858 fps=351 q=-0.0 size=N/A time=00:23:32.16 bitrate=N/A speed=14.6x    frame=34013 fps=351 q=-0.0 size=N/A time=00:23:38.62 bitrate=N/A speed=14.6x    frame=34182 fps=351 q=-0.0 size=N/A time=00:23:45.67 bitrate=N/A speed=14.6x    frame=34329 fps=350 q=-0.0 size=N/A time=00:23:51.80 bitrate=N/A speed=14.6x    frame=34462 fps=350 q=-0.0 size=N/A time=00:23:57.35 bitrate=N/A speed=14.6x    frame=34642 fps=350 q=-0.0 size=N/A time=00:24:04.86 bitrate=N/A speed=14.6x    [Parsed_ssim_16 @ 00000253abf04940] SSIM Y:0.994188 (22.357110) U:0.993995 (22.214866) V:0.993604 (21.940611) All:0.994059 (22.261223)
[out#0/null @ 000002539e9e8a00] video:14903KiB audio:271276KiB subtitle:0KiB other streams:0KiB global headers:0KiB muxing overhead: unknown
frame=34683 fps=350 q=-0.0 Lsize=N/A time=00:24:06.57 bitrate=N/A speed=14.6x    
